# xmcd CD database file
#
# Track frame offsets:
#	180
#	14140
#	31962
#	47497
#	65603
#	88313
#	107582
#	130922
#	153351
#	166903
#	189680
#	206097
#	230207
#	247424
#	261883
#
# Disc length: 3497 seconds
#
# Revision: 1
# Processed by: cddbd v1.5.1PL0 Copyright (c) Steve Scherf et al.
# Submitted via: CDex 1.51
#
DISCID=df0da70f
DTITLE=Fast Eddy's Blue Band - Honesty
DYEAR=1996
DGENRE=Blues
TTITLE0=let the good times roll
TTITLE1=too much time to think
TTITLE2=slow down
TTITLE3=danger zone
TTITLE4=someday after a while
TTITLE5=wild side of life
TTITLE6=river bank song
TTITLE7=freedom train
TTITLE8=let me move you
TTITLE9=heard it through the grapevine
TTITLE10=everyday i have the bluews
TTITLE11=come to papa
TTITLE12=born to love you
TTITLE13=rolling man
TTITLE14=La familia Argentina
EXTD=YEAR: 1996
EXTT0=
EXTT1=
EXTT2=
EXTT3=
EXTT4=
EXTT5=
EXTT6=
EXTT7=
EXTT8=
EXTT9=
EXTT10=
EXTT11=
EXTT12=
EXTT13=
EXTT14=
PLAYORDER=
